<mxfile host="app.diagrams.net" agent="Mozilla/5.0 (Windows NT 10.0; Win64; x64; rv:143.0) Gecko/20100101 Firefox/143.0" version="28.2.5">
  <diagram name="Page-1" id="a7FyYzEARyetImE0kBtE">
    <mxGraphModel dx="898" dy="715" grid="1" gridSize="10" guides="1" tooltips="1" connect="1" arrows="1" fold="1" page="1" pageScale="1" pageWidth="850" pageHeight="1100" math="0" shadow="0">
      <root>
        <mxCell id="0" />
        <mxCell id="1" parent="0" />
        <mxCell id="7SyEWHtz3QJDpPlIXNB2-2" value="postach" style="swimlane;fontStyle=0;childLayout=stackLayout;horizontal=1;startSize=30;horizontalStack=0;resizeParent=1;resizeParentMax=0;resizeLast=0;collapsible=1;marginBottom=0;whiteSpace=wrap;html=1;" parent="1" vertex="1">
          <mxGeometry x="80" y="250" width="140" height="60" as="geometry" />
        </mxCell>
        <mxCell id="7SyEWHtz3QJDpPlIXNB2-3" value="(K) kod postach" style="text;strokeColor=none;fillColor=none;align=left;verticalAlign=middle;spacingLeft=4;spacingRight=4;overflow=hidden;points=[[0,0.5],[1,0.5]];portConstraint=eastwest;rotatable=0;whiteSpace=wrap;html=1;" parent="7SyEWHtz3QJDpPlIXNB2-2" vertex="1">
          <mxGeometry y="30" width="140" height="30" as="geometry" />
        </mxCell>
        <mxCell id="7SyEWHtz3QJDpPlIXNB2-6" value="syrovyna" style="swimlane;fontStyle=0;childLayout=stackLayout;horizontal=1;startSize=30;horizontalStack=0;resizeParent=1;resizeParentMax=0;resizeLast=0;collapsible=1;marginBottom=0;whiteSpace=wrap;html=1;" parent="1" vertex="1">
          <mxGeometry x="660" y="200" width="140" height="90" as="geometry" />
        </mxCell>
        <mxCell id="7SyEWHtz3QJDpPlIXNB2-7" value="(K) vyd syrovyny" style="text;strokeColor=default;fillColor=none;align=left;verticalAlign=middle;spacingLeft=4;spacingRight=4;overflow=hidden;points=[[0,0.5],[1,0.5]];portConstraint=eastwest;rotatable=0;whiteSpace=wrap;html=1;" parent="7SyEWHtz3QJDpPlIXNB2-6" vertex="1">
          <mxGeometry y="30" width="140" height="30" as="geometry" />
        </mxCell>
        <mxCell id="7SyEWHtz3QJDpPlIXNB2-8" value="odynycya vymiru" style="text;strokeColor=none;fillColor=none;align=left;verticalAlign=middle;spacingLeft=4;spacingRight=4;overflow=hidden;points=[[0,0.5],[1,0.5]];portConstraint=eastwest;rotatable=0;whiteSpace=wrap;html=1;" parent="7SyEWHtz3QJDpPlIXNB2-6" vertex="1">
          <mxGeometry y="60" width="140" height="30" as="geometry" />
        </mxCell>
        <mxCell id="7SyEWHtz3QJDpPlIXNB2-10" value="dogovir" style="swimlane;fontStyle=0;childLayout=stackLayout;horizontal=1;startSize=30;horizontalStack=0;resizeParent=1;resizeParentMax=0;resizeLast=0;collapsible=1;marginBottom=0;whiteSpace=wrap;html=1;" parent="1" vertex="1">
          <mxGeometry x="370" y="290" width="140" height="120" as="geometry" />
        </mxCell>
        <mxCell id="7SyEWHtz3QJDpPlIXNB2-11" value="(K) nomer dogovoru" style="text;strokeColor=default;fillColor=none;align=left;verticalAlign=middle;spacingLeft=4;spacingRight=4;overflow=hidden;points=[[0,0.5],[1,0.5]];portConstraint=eastwest;rotatable=0;whiteSpace=wrap;html=1;" parent="7SyEWHtz3QJDpPlIXNB2-10" vertex="1">
          <mxGeometry y="30" width="140" height="30" as="geometry" />
        </mxCell>
        <mxCell id="7SyEWHtz3QJDpPlIXNB2-12" value="data ukladannya" style="text;strokeColor=none;fillColor=none;align=left;verticalAlign=middle;spacingLeft=4;spacingRight=4;overflow=hidden;points=[[0,0.5],[1,0.5]];portConstraint=eastwest;rotatable=0;whiteSpace=wrap;html=1;" parent="7SyEWHtz3QJDpPlIXNB2-10" vertex="1">
          <mxGeometry y="60" width="140" height="30" as="geometry" />
        </mxCell>
        <mxCell id="7SyEWHtz3QJDpPlIXNB2-13" value="termin diyi" style="text;strokeColor=none;fillColor=none;align=left;verticalAlign=middle;spacingLeft=4;spacingRight=4;overflow=hidden;points=[[0,0.5],[1,0.5]];portConstraint=eastwest;rotatable=0;whiteSpace=wrap;html=1;" parent="7SyEWHtz3QJDpPlIXNB2-10" vertex="1">
          <mxGeometry y="90" width="140" height="30" as="geometry" />
        </mxCell>
        <mxCell id="7SyEWHtz3QJDpPlIXNB2-14" value="prybut. naklad." style="swimlane;fontStyle=0;childLayout=stackLayout;horizontal=1;startSize=30;horizontalStack=0;resizeParent=1;resizeParentMax=0;resizeLast=0;collapsible=1;marginBottom=0;whiteSpace=wrap;html=1;" parent="1" vertex="1">
          <mxGeometry x="910" y="50" width="140" height="150" as="geometry" />
        </mxCell>
        <mxCell id="7gVvt2BjDGq4xTKBvuCV-2" value="(K) id pr. naklad." style="text;strokeColor=default;fillColor=none;align=left;verticalAlign=middle;spacingLeft=4;spacingRight=4;overflow=hidden;points=[[0,0.5],[1,0.5]];portConstraint=eastwest;rotatable=0;whiteSpace=wrap;html=1;" vertex="1" parent="7SyEWHtz3QJDpPlIXNB2-14">
          <mxGeometry y="30" width="140" height="30" as="geometry" />
        </mxCell>
        <mxCell id="7SyEWHtz3QJDpPlIXNB2-16" value="data nadhodzhennya" style="text;strokeColor=none;fillColor=none;align=left;verticalAlign=middle;spacingLeft=4;spacingRight=4;overflow=hidden;points=[[0,0.5],[1,0.5]];portConstraint=eastwest;rotatable=0;whiteSpace=wrap;html=1;" parent="7SyEWHtz3QJDpPlIXNB2-14" vertex="1">
          <mxGeometry y="60" width="140" height="30" as="geometry" />
        </mxCell>
        <mxCell id="7SyEWHtz3QJDpPlIXNB2-15" value="kod postach" style="text;strokeColor=none;fillColor=none;align=left;verticalAlign=middle;spacingLeft=4;spacingRight=4;overflow=hidden;points=[[0,0.5],[1,0.5]];portConstraint=eastwest;rotatable=0;whiteSpace=wrap;html=1;" parent="7SyEWHtz3QJDpPlIXNB2-14" vertex="1">
          <mxGeometry y="90" width="140" height="30" as="geometry" />
        </mxCell>
        <mxCell id="7SyEWHtz3QJDpPlIXNB2-17" value="vyd syrovyny" style="text;strokeColor=none;fillColor=none;align=left;verticalAlign=middle;spacingLeft=4;spacingRight=4;overflow=hidden;points=[[0,0.5],[1,0.5]];portConstraint=eastwest;rotatable=0;whiteSpace=wrap;html=1;" parent="7SyEWHtz3QJDpPlIXNB2-14" vertex="1">
          <mxGeometry y="120" width="140" height="30" as="geometry" />
        </mxCell>
        <mxCell id="7SyEWHtz3QJDpPlIXNB2-23" value="vydat. naklad." style="swimlane;fontStyle=0;childLayout=stackLayout;horizontal=1;startSize=30;horizontalStack=0;resizeParent=1;resizeParentMax=0;resizeLast=0;collapsible=1;marginBottom=0;whiteSpace=wrap;html=1;glass=0;" parent="1" vertex="1">
          <mxGeometry x="910" y="210" width="140" height="180" as="geometry">
            <mxRectangle x="120" y="460" width="110" height="30" as="alternateBounds" />
          </mxGeometry>
        </mxCell>
        <mxCell id="7gVvt2BjDGq4xTKBvuCV-3" value="(K) id vyd. naklad." style="text;strokeColor=default;fillColor=none;align=left;verticalAlign=middle;spacingLeft=4;spacingRight=4;overflow=hidden;points=[[0,0.5],[1,0.5]];portConstraint=eastwest;rotatable=0;whiteSpace=wrap;html=1;" vertex="1" parent="7SyEWHtz3QJDpPlIXNB2-23">
          <mxGeometry y="30" width="140" height="30" as="geometry" />
        </mxCell>
        <mxCell id="7SyEWHtz3QJDpPlIXNB2-26" value="data didvantazhennya" style="text;strokeColor=none;fillColor=none;align=left;verticalAlign=middle;spacingLeft=4;spacingRight=4;overflow=hidden;points=[[0,0.5],[1,0.5]];portConstraint=eastwest;rotatable=0;whiteSpace=wrap;html=1;" parent="7SyEWHtz3QJDpPlIXNB2-23" vertex="1">
          <mxGeometry y="60" width="140" height="30" as="geometry" />
        </mxCell>
        <mxCell id="7SyEWHtz3QJDpPlIXNB2-35" value="kilkist" style="text;strokeColor=none;fillColor=none;align=left;verticalAlign=middle;spacingLeft=4;spacingRight=4;overflow=hidden;points=[[0,0.5],[1,0.5]];portConstraint=eastwest;rotatable=0;whiteSpace=wrap;html=1;" parent="7SyEWHtz3QJDpPlIXNB2-23" vertex="1">
          <mxGeometry y="90" width="140" height="30" as="geometry" />
        </mxCell>
        <mxCell id="7SyEWHtz3QJDpPlIXNB2-25" value="&lt;div&gt;vyd syrovyny&lt;/div&gt;" style="text;strokeColor=none;fillColor=none;align=left;verticalAlign=middle;spacingLeft=4;spacingRight=4;overflow=hidden;points=[[0,0.5],[1,0.5]];portConstraint=eastwest;rotatable=0;whiteSpace=wrap;html=1;" parent="7SyEWHtz3QJDpPlIXNB2-23" vertex="1">
          <mxGeometry y="120" width="140" height="30" as="geometry" />
        </mxCell>
        <mxCell id="7SyEWHtz3QJDpPlIXNB2-24" value="nazva cehu" style="text;strokeColor=none;fillColor=none;align=left;verticalAlign=middle;spacingLeft=4;spacingRight=4;overflow=hidden;points=[[0,0.5],[1,0.5]];portConstraint=eastwest;rotatable=0;whiteSpace=wrap;html=1;" parent="7SyEWHtz3QJDpPlIXNB2-23" vertex="1">
          <mxGeometry y="150" width="140" height="30" as="geometry" />
        </mxCell>
        <mxCell id="7SyEWHtz3QJDpPlIXNB2-40" value="" style="edgeStyle=entityRelationEdgeStyle;fontSize=12;html=1;endArrow=ERoneToMany;rounded=0;exitX=1;exitY=0.5;exitDx=0;exitDy=0;entryX=0;entryY=0.125;entryDx=0;entryDy=0;entryPerimeter=0;" parent="1" source="7SyEWHtz3QJDpPlIXNB2-3" target="7SyEWHtz3QJDpPlIXNB2-10" edge="1">
          <mxGeometry width="100" height="100" relative="1" as="geometry">
            <mxPoint x="230" y="400" as="sourcePoint" />
            <mxPoint x="330" y="300" as="targetPoint" />
          </mxGeometry>
        </mxCell>
        <mxCell id="7SyEWHtz3QJDpPlIXNB2-43" value="" style="edgeStyle=entityRelationEdgeStyle;fontSize=12;html=1;endArrow=ERoneToMany;rounded=0;entryX=0;entryY=0.167;entryDx=0;entryDy=0;entryPerimeter=0;" parent="1" target="7SyEWHtz3QJDpPlIXNB2-14" edge="1">
          <mxGeometry width="100" height="100" relative="1" as="geometry">
            <mxPoint x="160" y="70.03999999999996" as="sourcePoint" />
            <mxPoint x="160" y="-79.96000000000004" as="targetPoint" />
            <Array as="points">
              <mxPoint x="160" y="-29.960000000000036" />
              <mxPoint x="430" y="200.03999999999996" />
              <mxPoint x="170" y="-49.960000000000036" />
              <mxPoint x="160" y="-29.960000000000036" />
              <mxPoint x="160" y="-49.960000000000036" />
              <mxPoint x="169.02" y="-58.73000000000002" />
            </Array>
          </mxGeometry>
        </mxCell>
        <mxCell id="7SyEWHtz3QJDpPlIXNB2-44" value="" style="edgeStyle=entityRelationEdgeStyle;fontSize=12;html=1;endArrow=ERmany;startArrow=ERmany;rounded=0;entryX=-0.02;entryY=0.163;entryDx=0;entryDy=0;entryPerimeter=0;exitX=1.015;exitY=0.146;exitDx=0;exitDy=0;exitPerimeter=0;" parent="1" source="7SyEWHtz3QJDpPlIXNB2-10" target="7SyEWHtz3QJDpPlIXNB2-6" edge="1">
          <mxGeometry width="100" height="100" relative="1" as="geometry">
            <mxPoint x="390" y="530" as="sourcePoint" />
            <mxPoint x="490" y="430" as="targetPoint" />
          </mxGeometry>
        </mxCell>
        <mxCell id="7SyEWHtz3QJDpPlIXNB2-47" value="ceh" style="swimlane;fontStyle=0;childLayout=stackLayout;horizontal=1;startSize=26;horizontalStack=0;resizeParent=1;resizeParentMax=0;resizeLast=0;collapsible=1;marginBottom=0;align=center;fontSize=14;" parent="1" vertex="1">
          <mxGeometry x="520" y="460" width="160" height="86" as="geometry" />
        </mxCell>
        <mxCell id="7SyEWHtz3QJDpPlIXNB2-48" value="(K) id cehu" style="text;strokeColor=default;fillColor=none;spacingLeft=4;spacingRight=4;overflow=hidden;rotatable=0;points=[[0,0.5],[1,0.5]];portConstraint=eastwest;fontSize=12;whiteSpace=wrap;html=1;" parent="7SyEWHtz3QJDpPlIXNB2-47" vertex="1">
          <mxGeometry y="26" width="160" height="30" as="geometry" />
        </mxCell>
        <mxCell id="7gVvt2BjDGq4xTKBvuCV-1" value="nazva cehu" style="text;strokeColor=none;fillColor=none;spacingLeft=4;spacingRight=4;overflow=hidden;rotatable=0;points=[[0,0.5],[1,0.5]];portConstraint=eastwest;fontSize=12;whiteSpace=wrap;html=1;" vertex="1" parent="7SyEWHtz3QJDpPlIXNB2-47">
          <mxGeometry y="56" width="160" height="30" as="geometry" />
        </mxCell>
        <mxCell id="7SyEWHtz3QJDpPlIXNB2-51" value="" style="edgeStyle=entityRelationEdgeStyle;fontSize=12;html=1;endArrow=ERoneToMany;rounded=0;exitX=1;exitY=0.25;exitDx=0;exitDy=0;entryX=-0.02;entryY=0.289;entryDx=0;entryDy=0;entryPerimeter=0;" parent="1" source="7SyEWHtz3QJDpPlIXNB2-47" target="7SyEWHtz3QJDpPlIXNB2-26" edge="1">
          <mxGeometry width="100" height="100" relative="1" as="geometry">
            <mxPoint x="340" y="420" as="sourcePoint" />
            <mxPoint x="440" y="320" as="targetPoint" />
          </mxGeometry>
        </mxCell>
        <mxCell id="7SyEWHtz3QJDpPlIXNB2-52" value="" style="edgeStyle=entityRelationEdgeStyle;fontSize=12;html=1;endArrow=ERmany;startArrow=ERmany;rounded=0;exitX=0.998;exitY=0.374;exitDx=0;exitDy=0;exitPerimeter=0;entryX=0;entryY=0.067;entryDx=0;entryDy=0;entryPerimeter=0;" parent="1" source="7SyEWHtz3QJDpPlIXNB2-6" target="7SyEWHtz3QJDpPlIXNB2-23" edge="1">
          <mxGeometry width="100" height="100" relative="1" as="geometry">
            <mxPoint x="610" y="430" as="sourcePoint" />
            <mxPoint x="710" y="330" as="targetPoint" />
          </mxGeometry>
        </mxCell>
        <mxCell id="7SyEWHtz3QJDpPlIXNB2-53" value="" style="line;strokeWidth=1;rotatable=0;dashed=0;labelPosition=right;align=left;verticalAlign=middle;spacingTop=0;spacingLeft=6;points=[];portConstraint=eastwest;flipV=0;flipH=0;direction=south;" parent="1" vertex="1">
          <mxGeometry x="150" y="70" width="25" height="180" as="geometry" />
        </mxCell>
        <mxCell id="7SyEWHtz3QJDpPlIXNB2-54" value="" style="edgeStyle=entityRelationEdgeStyle;fontSize=12;html=1;endArrow=ERmany;startArrow=ERmany;rounded=0;entryX=-0.02;entryY=0.789;entryDx=0;entryDy=0;entryPerimeter=0;exitX=1.022;exitY=0.124;exitDx=0;exitDy=0;exitPerimeter=0;" parent="1" source="7SyEWHtz3QJDpPlIXNB2-6" target="7SyEWHtz3QJDpPlIXNB2-16" edge="1">
          <mxGeometry width="100" height="100" relative="1" as="geometry">
            <mxPoint x="770" y="330" as="sourcePoint" />
            <mxPoint x="870" y="230" as="targetPoint" />
          </mxGeometry>
        </mxCell>
        <mxCell id="2n5eq0xevGPjQ-ddaQk3-1" value="" style="edgeStyle=entityRelationEdgeStyle;fontSize=12;html=1;endArrow=ERmandOne;startArrow=ERmandOne;rounded=0;entryX=-0.015;entryY=0.999;entryDx=0;entryDy=0;exitX=1;exitY=0.5;exitDx=0;exitDy=0;entryPerimeter=0;" parent="1" target="7SyEWHtz3QJDpPlIXNB2-24" edge="1">
          <mxGeometry width="100" height="100" relative="1" as="geometry">
            <mxPoint x="680.0000000000002" y="506" as="sourcePoint" />
            <mxPoint x="910.0000000000002" y="320" as="targetPoint" />
          </mxGeometry>
        </mxCell>
        <mxCell id="2n5eq0xevGPjQ-ddaQk3-2" value="" style="edgeStyle=entityRelationEdgeStyle;fontSize=12;html=1;endArrow=ERmandOne;startArrow=ERmandOne;rounded=0;entryX=0;entryY=0.5;entryDx=0;entryDy=0;exitX=1;exitY=0.25;exitDx=0;exitDy=0;" parent="1" source="7SyEWHtz3QJDpPlIXNB2-2" target="7SyEWHtz3QJDpPlIXNB2-16" edge="1">
          <mxGeometry width="100" height="100" relative="1" as="geometry">
            <mxPoint x="210" y="210" as="sourcePoint" />
            <mxPoint x="660" y="290" as="targetPoint" />
            <Array as="points">
              <mxPoint x="240" y="210" />
              <mxPoint x="200" y="210" />
            </Array>
          </mxGeometry>
        </mxCell>
        <mxCell id="2n5eq0xevGPjQ-ddaQk3-3" value="ukladaye" style="text;html=1;align=center;verticalAlign=middle;whiteSpace=wrap;rounded=0;" parent="1" vertex="1">
          <mxGeometry x="290" y="280" width="60" height="30" as="geometry" />
        </mxCell>
        <mxCell id="2n5eq0xevGPjQ-ddaQk3-6" value="nadsylaye" style="text;html=1;align=center;verticalAlign=middle;whiteSpace=wrap;rounded=0;" parent="1" vertex="1">
          <mxGeometry x="470" y="40" width="60" height="30" as="geometry" />
        </mxCell>
        <mxCell id="2n5eq0xevGPjQ-ddaQk3-7" value="peredbachaye" style="text;html=1;align=center;verticalAlign=middle;whiteSpace=wrap;rounded=0;" parent="1" vertex="1">
          <mxGeometry x="540" y="230" width="60" height="30" as="geometry" />
        </mxCell>
        <mxCell id="2n5eq0xevGPjQ-ddaQk3-8" value="otrymuye" style="text;html=1;align=center;verticalAlign=middle;whiteSpace=wrap;rounded=0;" parent="1" vertex="1">
          <mxGeometry x="730" y="350" width="60" height="30" as="geometry" />
        </mxCell>
        <mxCell id="2n5eq0xevGPjQ-ddaQk3-9" value="otrymana v" style="text;html=1;align=center;verticalAlign=middle;whiteSpace=wrap;rounded=0;" parent="1" vertex="1">
          <mxGeometry x="810" y="150" width="60" height="30" as="geometry" />
        </mxCell>
        <mxCell id="2n5eq0xevGPjQ-ddaQk3-10" value="vytrachena v" style="text;html=1;align=center;verticalAlign=middle;whiteSpace=wrap;rounded=0;" parent="1" vertex="1">
          <mxGeometry x="840" y="200" width="60" height="30" as="geometry" />
        </mxCell>
        <mxCell id="2n5eq0xevGPjQ-ddaQk3-12" value="nadiyshla" style="text;html=1;align=center;verticalAlign=middle;whiteSpace=wrap;rounded=0;" parent="1" vertex="1">
          <mxGeometry x="510" y="160" width="60" height="30" as="geometry" />
        </mxCell>
        <mxCell id="2n5eq0xevGPjQ-ddaQk3-13" value="pryznachena" style="text;html=1;align=center;verticalAlign=middle;whiteSpace=wrap;rounded=0;" parent="1" vertex="1">
          <mxGeometry x="810" y="410" width="60" height="30" as="geometry" />
        </mxCell>
      </root>
    </mxGraphModel>
  </diagram>
</mxfile>
